<?xml version="1.0" encoding="UTF-8"?>
<svg width="56px" height="54px" viewBox="0 0 56 54" version="1.1" xmlns="http://www.w3.org/2000/svg" xmlns:xlink="http://www.w3.org/1999/xlink">
    <!-- Generator: Sketch 52.6 (67491) - http://www.bohemiancoding.com/sketch -->
    <title>baseline-message-24px</title>
    <desc>Created with Sketch.</desc>
    <defs>
        <filter x="-34.0%" y="-2.5%" width="168.0%" height="105.0%" filterUnits="objectBoundingBox" id="filter-1">
            <feOffset dx="0" dy="2" in="SourceAlpha" result="shadowOffsetOuter1"></feOffset>
            <feGaussianBlur stdDeviation="5.5" in="shadowOffsetOuter1" result="shadowBlurOuter1"></feGaussianBlur>
            <feColorMatrix values="0 0 0 0 0   0 0 0 0 0   0 0 0 0 0  0 0 0 0.5 0" type="matrix" in="shadowBlurOuter1" result="shadowMatrixOuter1"></feColorMatrix>
            <feMerge>
                <feMergeNode in="shadowMatrixOuter1"></feMergeNode>
                <feMergeNode in="SourceGraphic"></feMergeNode>
            </feMerge>
        </filter>
    </defs>
    <g id="Radio1" stroke="none" stroke-width="1" fill="none" fill-rule="evenodd">
        <g id="Studio-Dashboard_ModuleAdd" transform="translate(-11.000000, -329.000000)" fill="#FFFFFF" fill-rule="nonzero">
            <g id="MENU-LEFT" filter="url(#filter-1)">
                <g id="icons" transform="translate(18.000000, 338.000000)">
                    <g id="baseline-message-24px" transform="translate(4.000000, 0.000000)">
                        <path d="M30.6,0 L3.4,0 C1.53,0 0.017,1.53 0.017,3.4 L0,34 L6.8,27.2 L30.6,27.2 C32.47,27.2 34,25.67 34,23.8 L34,3.4 C34,1.53 32.47,0 30.6,0 Z M27.2,20.4 L6.8,20.4 L6.8,17 L27.2,17 L27.2,20.4 Z M27.2,15.3 L6.8,15.3 L6.8,11.9 L27.2,11.9 L27.2,15.3 Z M27.2,10.2 L6.8,10.2 L6.8,6.8 L27.2,6.8 L27.2,10.2 Z" id="Shape"></path>
                    </g>
                </g>
            </g>
        </g>
    </g>
</svg>