<?xml version="1.0" encoding="UTF-8"?>
<svg width="51px" height="66px" viewBox="0 0 51 66" version="1.1" xmlns="http://www.w3.org/2000/svg" xmlns:xlink="http://www.w3.org/1999/xlink">
    <!-- Generator: Sketch 52.6 (67491) - http://www.bohemiancoding.com/sketch -->
    <title>poppetje</title>
    <desc>Created with Sketch.</desc>
    <defs>
        <filter x="-6.1%" y="-2.3%" width="112.3%" height="104.4%" filterUnits="objectBoundingBox" id="filter-1">
            <feOffset dx="0" dy="2" in="SourceAlpha" result="shadowOffsetOuter1"></feOffset>
            <feGaussianBlur stdDeviation="3.5" in="shadowOffsetOuter1" result="shadowBlurOuter1"></feGaussianBlur>
            <feColorMatrix values="0 0 0 0 0   0 0 0 0 0   0 0 0 0 0  0 0 0 0.5 0" type="matrix" in="shadowBlurOuter1" result="shadowMatrixOuter1"></feColorMatrix>
            <feMerge>
                <feMergeNode in="shadowMatrixOuter1"></feMergeNode>
                <feMergeNode in="SourceGraphic"></feMergeNode>
            </feMerge>
        </filter>
    </defs>
    <g id="Radio1" stroke="none" stroke-width="1" fill="none" fill-rule="evenodd">
        <g id="Studio-Dashboard_VERKEER" transform="translate(-966.000000, -609.000000)" stroke="#FFFFFF">
            <g id="lane" filter="url(#filter-1)" transform="translate(955.000000, 150.000000)">
                <g id="LIST">
                    <g id="ITEM" transform="translate(0.000000, 410.000000)">
                        <g id="poppetje" transform="translate(20.000000, 55.000000)">
                            <path d="M33,47 L14.2259706,18.8389031 C13.1675301,17.2512423 13.4674738,15.1223066 14.9233735,13.8888889 C14.9233735,13.8888889 14.9233735,13.8888889 14.9233735,13.8888889 C16.9618593,12.1619122 18.2796802,12.1725105 19.5,12.2222222 C20.7836989,12.2745158 22.1980408,11.9271011 23.916082,14 C24.485411,14.6869226 24.8404192,16.4731332 24.9811068,19.3586318 L24.9810747,19.3586334 C24.9942895,19.6296705 24.8967854,19.89444 24.7109416,20.0921717 L6,40" id="Line" stroke-width="3" stroke-linecap="square"></path>
                            <path d="M11.5,33.5 L11.5,21.84" id="Line-2" stroke-width="2" stroke-linecap="square"></path>
                            <circle id="Oval" stroke-width="2" cx="10" cy="5" r="5"></circle>
                            <path d="M21.1468875,36.4921993 C20.1049783,37.1504776 18.2542869,38.3197445 15.5948132,40 L15.5948132,49.4323846" id="Line-3" stroke-width="3" stroke-linecap="square"></path>
                            <path d="M1.37806099,38 C-0.0472113131,42.4517933 -0.366907836,45.0336796 0.41897142,45.7456591 C1.20485068,46.4576386 3.8685798,46.0772976 8.41015879,44.6046361" id="Line-4" stroke-width="3" stroke-linecap="square"></path>
                        </g>
                    </g>
                </g>
            </g>
        </g>
    </g>
</svg>