<?xml version="1.0" encoding="UTF-8"?>
<svg width="56px" height="55px" viewBox="0 0 56 55" version="1.1" xmlns="http://www.w3.org/2000/svg" xmlns:xlink="http://www.w3.org/1999/xlink">
    <!-- Generator: Sketch 52.6 (67491) - http://www.bohemiancoding.com/sketch -->
    <title>Music-icon</title>
    <desc>Created with Sketch.</desc>
    <defs>
        <filter x="-34.0%" y="-2.5%" width="168.0%" height="105.0%" filterUnits="objectBoundingBox" id="filter-1">
            <feOffset dx="0" dy="2" in="SourceAlpha" result="shadowOffsetOuter1"></feOffset>
            <feGaussianBlur stdDeviation="5.5" in="shadowOffsetOuter1" result="shadowBlurOuter1"></feGaussianBlur>
            <feColorMatrix values="0 0 0 0 0   0 0 0 0 0   0 0 0 0 0  0 0 0 0.5 0" type="matrix" in="shadowBlurOuter1" result="shadowMatrixOuter1"></feColorMatrix>
            <feMerge>
                <feMergeNode in="shadowMatrixOuter1"></feMergeNode>
                <feMergeNode in="SourceGraphic"></feMergeNode>
            </feMerge>
        </filter>
    </defs>
    <g id="Radio1" stroke="none" stroke-width="1" fill="none" fill-rule="evenodd">
        <g id="Studio-Dashboard_ModuleAdd" transform="translate(-11.000000, -461.000000)">
            <g id="MENU-LEFT" filter="url(#filter-1)">
                <g id="icons" transform="translate(18.000000, 338.000000)">
                    <g id="Music-icon" transform="translate(4.000000, 133.000000)">
                        <rect id="Rectangle" stroke="#FFFFFF" stroke-width="1.21621622" x="2" y="4" width="29" height="18"></rect>
                        <path d="M5.97297297,0 L27.027027,0 C27.5643852,-9.8711088e-17 28,0.435614838 28,0.972972973 L28,4 L5,4 L5,0.972972973 C5,0.435614838 5.43561484,-1.23333517e-16 5.97297297,-2.22044605e-16 Z" id="Rectangle" stroke="#FFFFFF" stroke-width="1.21621622"></path>
                        <rect id="Rectangle" fill="#FFFFFF" x="0" y="7" width="34" height="25"></rect>
                        <path d="M17.8192195,14.1858984 L22.949777,23.4584908 C23.047335,23.6348099 22.9834865,23.8568312 22.8071674,23.9543892 C22.7530983,23.9843058 22.6923168,24 22.630523,24 L12.369408,24 C12.1678987,24 12.0045431,23.8366444 12.0045431,23.6351351 C12.0045431,23.5733413 12.0202374,23.5125599 12.050154,23.4584908 L17.1807115,14.1858984 C17.2782695,14.0095793 17.5002907,13.9457308 17.6766099,14.0432887 C17.7366012,14.0764822 17.7860261,14.1259071 17.8192195,14.1858984 Z" id="Triangle" fill="#003576" transform="translate(17.500000, 19.000000) rotate(90.000000) translate(-17.500000, -19.000000) "></path>
                    </g>
                </g>
            </g>
        </g>
    </g>
</svg>