<?xml version="1.0" encoding="UTF-8"?>
<svg width="52px" height="50px" viewBox="0 0 52 50" version="1.1" xmlns="http://www.w3.org/2000/svg" xmlns:xlink="http://www.w3.org/1999/xlink">
    <!-- Generator: Sketch 52.6 (67491) - http://www.bohemiancoding.com/sketch -->
    <title>traffic-icon</title>
    <desc>Created with Sketch.</desc>
    <defs>
        <filter x="-34.0%" y="-2.5%" width="168.0%" height="105.0%" filterUnits="objectBoundingBox" id="filter-1">
            <feOffset dx="0" dy="2" in="SourceAlpha" result="shadowOffsetOuter1"></feOffset>
            <feGaussianBlur stdDeviation="5.5" in="shadowOffsetOuter1" result="shadowBlurOuter1"></feGaussianBlur>
            <feColorMatrix values="0 0 0 0 0   0 0 0 0 0   0 0 0 0 0  0 0 0 0.5 0" type="matrix" in="shadowBlurOuter1" result="shadowMatrixOuter1"></feColorMatrix>
            <feMerge>
                <feMergeNode in="shadowMatrixOuter1"></feMergeNode>
                <feMergeNode in="SourceGraphic"></feMergeNode>
            </feMerge>
        </filter>
    </defs>
    <g id="Radio1" stroke="none" stroke-width="1" fill="none" fill-rule="evenodd">
        <g id="Studio-Dashboard_ModuleAdd" transform="translate(-13.000000, -593.000000)" fill="#FFFFFF" fill-rule="nonzero">
            <g id="MENU-LEFT" filter="url(#filter-1)">
                <g id="icons" transform="translate(18.000000, 338.000000)">
                    <g id="traffic-icon" transform="translate(6.000000, 264.000000)">
                        <g id="baseline-directions_car-24px">
                            <path d="M14.0470588,0.887575758 C13.8705882,0.369090909 13.3764706,0 12.7941176,0 L3.08823529,0 C2.50588235,0 2.02058824,0.369090909 1.83529412,0.887575758 L0,6.15151515 L0,13.1818182 C0,13.6651515 0.397058824,14.0606061 0.882352941,14.0606061 L1.76470588,14.0606061 C2.25,14.0606061 2.64705882,13.6651515 2.64705882,13.1818182 L2.64705882,12.3030303 L13.2352941,12.3030303 L13.2352941,13.1818182 C13.2352941,13.6651515 13.6323529,14.0606061 14.1176471,14.0606061 L15,14.0606061 C15.4852941,14.0606061 15.8823529,13.6651515 15.8823529,13.1818182 L15.8823529,6.15151515 L14.0470588,0.887575758 Z M13.1029412,9.37373737 C12.4438235,9.37373737 11.9117647,8.85037037 11.9117647,8.2020202 C11.9117647,7.55367003 12.4438235,7.03030303 13.1029412,7.03030303 C13.7620588,7.03030303 14.2941176,7.55367003 14.2941176,8.2020202 C14.2941176,8.85037037 13.7620588,9.37373737 13.1029412,9.37373737 Z M2.77941176,9.27609428 C2.12029412,9.27609428 1.58823529,8.75272727 1.58823529,8.1043771 C1.58823529,7.45602694 2.12029412,6.93265993 2.77941176,6.93265993 C3.43852941,6.93265993 3.97058824,7.45602694 3.97058824,8.1043771 C3.97058824,8.75272727 3.43852941,9.27609428 2.77941176,9.27609428 Z M1.58823529,5.46801347 L2.94957983,1.56228956 L12.9327731,1.56228956 L14.2941176,5.46801347 L1.58823529,5.46801347 Z" id="Shape"></path>
                        </g>
                        <g id="baseline-directions_car-24px" transform="translate(0.000000, 14.939394)">
                            <path d="M14.0470588,0.887575758 C13.8705882,0.369090909 13.3764706,0 12.7941176,0 L3.08823529,0 C2.50588235,0 2.02058824,0.369090909 1.83529412,0.887575758 L0,6.15151515 L0,13.1818182 C0,13.6651515 0.397058824,14.0606061 0.882352941,14.0606061 L1.76470588,14.0606061 C2.25,14.0606061 2.64705882,13.6651515 2.64705882,13.1818182 L2.64705882,12.3030303 L13.2352941,12.3030303 L13.2352941,13.1818182 C13.2352941,13.6651515 13.6323529,14.0606061 14.1176471,14.0606061 L15,14.0606061 C15.4852941,14.0606061 15.8823529,13.6651515 15.8823529,13.1818182 L15.8823529,6.15151515 L14.0470588,0.887575758 Z M3.08823529,9.66666667 C2.35588235,9.66666667 1.76470588,9.07787879 1.76470588,8.34848485 C1.76470588,7.61909091 2.35588235,7.03030303 3.08823529,7.03030303 C3.82058824,7.03030303 4.41176471,7.61909091 4.41176471,8.34848485 C4.41176471,9.07787879 3.82058824,9.66666667 3.08823529,9.66666667 Z M12.7941176,9.66666667 C12.0617647,9.66666667 11.4705882,9.07787879 11.4705882,8.34848485 C11.4705882,7.61909091 12.0617647,7.03030303 12.7941176,7.03030303 C13.5264706,7.03030303 14.1176471,7.61909091 14.1176471,8.34848485 C14.1176471,9.07787879 13.5264706,9.66666667 12.7941176,9.66666667 Z M1.76470588,5.27272727 L3.08823529,1.31818182 L12.7941176,1.31818182 L14.1176471,5.27272727 L1.76470588,5.27272727 Z" id="Shape"></path>
                        </g>
                        <g id="baseline-directions_car-24px" transform="translate(14.117647, 9.666667)">
                            <path d="M14.0470588,0.887575758 C13.8705882,0.369090909 13.3764706,0 12.7941176,0 L3.08823529,0 C2.50588235,0 2.02058824,0.369090909 1.83529412,0.887575758 L0,6.15151515 L0,13.1818182 C0,13.6651515 0.397058824,14.0606061 0.882352941,14.0606061 L1.76470588,14.0606061 C2.25,14.0606061 2.64705882,13.6651515 2.64705882,13.1818182 L2.64705882,12.3030303 L13.2352941,12.3030303 L13.2352941,13.1818182 C13.2352941,13.6651515 13.6323529,14.0606061 14.1176471,14.0606061 L15,14.0606061 C15.4852941,14.0606061 15.8823529,13.6651515 15.8823529,13.1818182 L15.8823529,6.15151515 L14.0470588,0.887575758 Z M13.1029412,9.37373737 C12.4438235,9.37373737 11.9117647,8.85037037 11.9117647,8.2020202 C11.9117647,7.55367003 12.4438235,7.03030303 13.1029412,7.03030303 C13.7620588,7.03030303 14.2941176,7.55367003 14.2941176,8.2020202 C14.2941176,8.85037037 13.7620588,9.37373737 13.1029412,9.37373737 Z M2.77941176,9.27609428 C2.12029412,9.27609428 1.58823529,8.75272727 1.58823529,8.1043771 C1.58823529,7.45602694 2.12029412,6.93265993 2.77941176,6.93265993 C3.43852941,6.93265993 3.97058824,7.45602694 3.97058824,8.1043771 C3.97058824,8.75272727 3.43852941,9.27609428 2.77941176,9.27609428 Z M1.58823529,5.46801347 L2.94957983,1.56228956 L12.9327731,1.56228956 L14.2941176,5.46801347 L1.58823529,5.46801347 Z" id="Shape"></path>
                        </g>
                    </g>
                </g>
            </g>
        </g>
    </g>
</svg>